<svg id="visual" viewBox="0 0 900 600" width="900" height="600" xmlns="http://www.w3.org/2000/svg" xmlns:xlink="http://www.w3.org/1999/xlink" version="1.1"><rect x="0" y="0" width="900" height="600" fill="#009473"></rect><path d="M0 275L15 305.8C30 336.7 60 398.3 90 379C120 359.7 150 259.3 180 248.7C210 238 240 317 270 343.3C300 369.7 330 343.3 360 367C390 390.7 420 464.3 450 479.8C480 495.3 510 452.7 540 392.5C570 332.3 600 254.7 630 259.5C660 264.3 690 351.7 720 405.3C750 459 780 479 810 476C840 473 870 447 885 434L900 421L900 601L885 601C870 601 840 601 810 601C780 601 750 601 720 601C690 601 660 601 630 601C600 601 570 601 540 601C510 601 480 601 450 601C420 601 390 601 360 601C330 601 300 601 270 601C240 601 210 601 180 601C150 601 120 601 90 601C60 601 30 601 15 601L0 601Z" fill="#F7770F" stroke-linecap="round" stroke-linejoin="miter"></path></svg>