<svg id="visual" viewBox="0 0 900 600" width="900" height="600" xmlns="http://www.w3.org/2000/svg" xmlns:xlink="http://www.w3.org/1999/xlink" version="1.1"><rect x="0" y="0" width="900" height="600" fill="#0066FF"></rect><path d="M0 367L15 383C30 399 60 431 90 433.8C120 436.7 150 410.3 180 373.7C210 337 240 290 270 263.2C300 236.3 330 229.7 360 242.7C390 255.7 420 288.3 450 323.3C480 358.3 510 395.7 540 408.5C570 421.3 600 409.7 630 391.2C660 372.7 690 347.3 720 344C750 340.7 780 359.3 810 376.7C840 394 870 410 885 418L900 426L900 601L885 601C870 601 840 601 810 601C780 601 750 601 720 601C690 601 660 601 630 601C600 601 570 601 540 601C510 601 480 601 450 601C420 601 390 601 360 601C330 601 300 601 270 601C240 601 210 601 180 601C150 601 120 601 90 601C60 601 30 601 15 601L0 601Z" fill="#6600FF" stroke-linecap="round" stroke-linejoin="miter"></path></svg>