<svg id="visual" viewBox="0 0 900 600" width="900" height="600" xmlns="http://www.w3.org/2000/svg" xmlns:xlink="http://www.w3.org/1999/xlink" version="1.1"><rect x="0" y="0" width="900" height="600" fill="#FF0066"></rect><path d="M0 378L21.5 359C43 340 86 302 128.8 281.5C171.7 261 214.3 258 257.2 291.8C300 325.7 343 396.3 385.8 404.2C428.7 412 471.3 357 514.2 328C557 299 600 296 642.8 320.8C685.7 345.7 728.3 398.3 771.2 392C814 385.7 857 320.3 878.5 287.7L900 255L900 601L878.5 601C857 601 814 601 771.2 601C728.3 601 685.7 601 642.8 601C600 601 557 601 514.2 601C471.3 601 428.7 601 385.8 601C343 601 300 601 257.2 601C214.3 601 171.7 601 128.8 601C86 601 43 601 21.5 601L0 601Z" fill="#0066FF" stroke-linecap="round" stroke-linejoin="miter"></path></svg>