<svg id="visual" viewBox="0 0 900 600" width="900" height="600" xmlns="http://www.w3.org/2000/svg" xmlns:xlink="http://www.w3.org/1999/xlink" version="1.1"><rect x="0" y="0" width="900" height="600" fill="#6600FF"></rect><path d="M0 473L5.5 443.3C11 413.7 22 354.3 33.2 351.5C44.3 348.7 55.7 402.3 66.8 435.3C78 468.3 89 480.7 100 447.2C111 413.7 122 334.3 133.2 298C144.3 261.7 155.7 268.3 166.8 306.3C178 344.3 189 413.7 200 443.3C211 473 222 463 233.2 425.2C244.3 387.3 255.7 321.7 266.8 290.7C278 259.7 289 263.3 300 284.8C311 306.3 322 345.7 333.2 356.8C344.3 368 355.7 351 366.8 353.2C378 355.3 389 376.7 400 366C411 355.3 422 312.7 433.2 317.5C444.3 322.3 455.7 374.7 466.8 399.3C478 424 489 421 500 407.2C511 393.3 522 368.7 533.2 347C544.3 325.3 555.7 306.7 566.8 331.2C578 355.7 589 423.3 600 458.3C611 493.3 622 495.7 633.2 481.7C644.3 467.7 655.7 437.3 666.8 395C678 352.7 689 298.3 700 305.3C711 312.3 722 380.7 733.2 403.3C744.3 426 755.7 403 766.8 390.2C778 377.3 789 374.7 800 351.2C811 327.7 822 283.3 833.2 274.7C844.3 266 855.7 293 866.8 329.5C878 366 889 412 894.5 435L900 458L900 601L894.5 601C889 601 878 601 866.8 601C855.7 601 844.3 601 833.2 601C822 601 811 601 800 601C789 601 778 601 766.8 601C755.7 601 744.3 601 733.2 601C722 601 711 601 700 601C689 601 678 601 666.8 601C655.7 601 644.3 601 633.2 601C622 601 611 601 600 601C589 601 578 601 566.8 601C555.7 601 544.3 601 533.2 601C522 601 511 601 500 601C489 601 478 601 466.8 601C455.7 601 444.3 601 433.2 601C422 601 411 601 400 601C389 601 378 601 366.8 601C355.7 601 344.3 601 333.2 601C322 601 311 601 300 601C289 601 278 601 266.8 601C255.7 601 244.3 601 233.2 601C222 601 211 601 200 601C189 601 178 601 166.8 601C155.7 601 144.3 601 133.2 601C122 601 111 601 100 601C89 601 78 601 66.8 601C55.7 601 44.3 601 33.2 601C22 601 11 601 5.5 601L0 601Z" fill="#009473" stroke-linecap="round" stroke-linejoin="miter"></path></svg>